<svg width="96" height="15" viewBox="0 0 96 15" fill="none" xmlns="http://www.w3.org/2000/svg">
<path d="M0 15L4.84 0.66H8.54L13.4 15H10.14L7.46 5.74C7.39333 5.51333 7.31333 5.22667 7.22 4.88C7.12667 4.53333 7.03333 4.18 6.94 3.82C6.84667 3.46 6.76667 3.14667 6.7 2.88C6.63333 3.14667 6.54667 3.48 6.44 3.88C6.34667 4.26667 6.25333 4.64 6.16 5C6.08 5.34667 6.01333 5.59333 5.96 5.74L3.26 15H0ZM21.5525 15H24.3525V9.08C24.3525 7.36 24.1725 5.44 24.0125 3.84H24.1325L26.0725 7.2L31.0325 15H34.0525V0.139999H31.2325V6.04C31.2325 7.74 31.4125 9.76 31.5925 11.3H31.4925L29.5125 7.92L24.5725 0.139999H21.5525V15ZM42.3125 15H53.3525V12.56H49.2925V2.64H53.3525V0.139999H42.3125V2.64H46.3125V12.56H42.3125V15ZM60.3525 15H63.0125V8.82C63.0125 7.4 62.8125 5.32 62.6725 3.9H62.7525L64.1725 7.44L66.9125 13.68H68.6125L71.3525 7.44L72.7925 3.9H72.8925C72.7325 5.32 72.5325 7.4 72.5325 8.82V15H75.2325V0.139999H71.9525L68.9925 7.14C68.6325 8.06 68.2725 9.02 67.8725 9.98H67.7925C67.4325 9.02 67.0325 8.06 66.6725 7.14L63.6325 0.139999H60.3525V15ZM82.2266 15L87.0666 0.66H90.7666L95.6266 15H92.3666L89.6866 5.74C89.6199 5.51333 89.5399 5.22667 89.4466 4.88C89.3532 4.53333 89.2599 4.18 89.1666 3.82C89.0732 3.46 88.9932 3.14667 88.9266 2.88C88.8599 3.14667 88.7732 3.48 88.6666 3.88C88.5732 4.26667 88.4799 4.64 88.3866 5C88.3066 5.34667 88.2399 5.59333 88.1866 5.74L85.4866 15H82.2266Z" fill="white"/>
</svg>
